<svg xmlns="http://www.w3.org/2000/svg" viewBox="0 0 427.05 434.22"><defs><style>.cls-1{fill:#ebebeb;}.cls-2{fill:#e0e0e0;}.cls-3{fill:#fff;}.cls-4{fill:#263238;}.cls-5{fill:#e8505b;}.cls-6{opacity:0.3;}.cls-7{fill:#b78876;}.cls-8{fill:#fafafa;}.cls-9{fill:#455a64;}.cls-10{fill:#aa6550;}.cls-11{fill:#f5f5f5;}.cls-12,.cls-13{fill:none;}.cls-12{stroke:#4e585d;stroke-miterlimit:10;}</style></defs><title>reset</title><g id="Background_Complete" data-name="Background Complete"><path class="cls-1" d="M159.39,192.16a23.65,23.65,0,1,0-.28-37.12h0l-5.19-4-7.71,2.4.88-7.71-6.5-5.05-7.7,2.4.88-7.7L128.18,131l-4.69,1.47.53-4.7-3.25-2.53-7.38.73-1,11.33,38.66,30.06A23.67,23.67,0,0,0,159.39,192.16Zm28.17-8.06a6.79,6.79,0,1,1-1.2-9.52A6.79,6.79,0,0,1,187.56,184.1Z" transform="translate(-11.32 -10.37)"/><path class="cls-1" d="M190.55,101.78a12.66,12.66,0,1,0-19.88-.33h0l-2.23,2.73,1.19,4.15-4.12-.57-2.79,3.42,1.19,4.15-4.11-.57-2.4,2.93.72,2.54-2.51-.35-1.39,1.71.29,4,6.06.68,16.59-20.3A12.68,12.68,0,0,0,190.55,101.78Zm-4-15.18a3.64,3.64,0,1,1-5.12.52A3.63,3.63,0,0,1,186.6,86.6Z" transform="translate(-11.32 -10.37)"/><polygon class="cls-2" points="125.74 5.51 125.74 78.9 20.34 78.9 16.54 6.02 125.74 5.51"/><rect class="cls-3" x="44.2" y="0.05" width="72.72" height="105.41" transform="translate(16.49 122.94) rotate(-90)"/><path class="cls-2" d="M133.76,89.61H27.36V15.89h106.4Zm-105.4-1h104.4V16.89H28.36Z" transform="translate(-11.32 -10.37)"/><rect class="cls-3" x="27.95" y="15.06" width="82.57" height="54.65"/><path class="cls-2" d="M121.85,25.43h-.41l-1.17,0-4.54,0-17,.07-59.44.12.24-.24c0,16.7,0,35.2,0,54.64h0l-.26-.26,82.58.05-.21.21c0-16.63.08-30.27.11-39.76,0-4.75,0-8.46,0-11,0-1.26,0-2.22,0-2.89s0-1,0-1,0,.32,0,1,0,1.61,0,2.85c0,2.53,0,6.22.06,11,0,9.52.06,23.2.1,39.89v.21h-.2l-82.58,0H39v-.26h0c0-19.44,0-37.94,0-54.64v-.24h.24l59.6.12,17,.06,4.49,0h1.15Z" transform="translate(-11.32 -10.37)"/><path class="cls-2" d="M27.86,16.19a8.68,8.68,0,0,1,1.81,1.17c1.08.78,2.55,1.89,4.13,3.15s3,2.47,4,3.37a8.18,8.18,0,0,1,1.51,1.55c-.1.11-2.63-2-5.8-4.51A55.93,55.93,0,0,1,27.86,16.19Z" transform="translate(-11.32 -10.37)"/><path class="cls-2" d="M133.26,16.39a49.38,49.38,0,0,1-5.54,4.72,52,52,0,0,1-5.87,4.32,49.38,49.38,0,0,1,5.54-4.72A52,52,0,0,1,133.26,16.39Z" transform="translate(-11.32 -10.37)"/><path class="cls-3" d="M133.18,89.12,121.43,79.6" transform="translate(-11.32 -10.37)"/><path class="cls-2" d="M121.43,79.6a56,56,0,0,1,6,4.56,56.29,56.29,0,0,1,5.71,5,54.48,54.48,0,0,1-6-4.56A55,55,0,0,1,121.43,79.6Z" transform="translate(-11.32 -10.37)"/><path class="cls-2" d="M27.86,89.11a50.17,50.17,0,0,1,5.48-4.67,48,48,0,0,1,5.82-4.26,52.17,52.17,0,0,1-5.49,4.67A48.35,48.35,0,0,1,27.86,89.11Z" transform="translate(-11.32 -10.37)"/><rect class="cls-2" x="72.87" y="25.63" width="18.3" height="51.96" transform="translate(19.09 123.25) rotate(-90)"/></g><g id="Floor"><path class="cls-4" d="M398.73,432.71c0,.15-85.88.27-191.8.27s-191.82-.12-191.82-.27,85.86-.26,191.82-.26S398.73,432.57,398.73,432.71Z" transform="translate(-11.32 -10.37)"/></g><g id="Character"><polygon class="cls-4" points="307.21 386.14 331.97 422.13 340.81 422.34 324.59 385.33 307.21 386.14"/><polygon class="cls-4" points="46.04 387.98 33 421.97 39.52 421.97 62.3 388.13 46.04 387.98"/><path class="cls-5" d="M51.77,274.82l1,44a11.62,11.62,0,0,0,11.36,11.37l246.19,5.48A11.62,11.62,0,0,0,322.17,324V271a31.31,31.31,0,0,0-27-31c-45.07-6.19-138-15.72-213.15-2.18A36.77,36.77,0,0,0,51.77,274.82Z" transform="translate(-11.32 -10.37)"/><path class="cls-5" d="M50.67,290.19s-20.29-9.39-24.44,0,.47,20.91,5.08,27.36,4.53,85.74,4.53,85.74L343.42,400l3.64-76.27s14.75-18.16,13.83-26-13.37-19.24-27.66-7.54-18,36.12-18,36.12L70,328.15S70.84,293.82,50.67,290.19Z" transform="translate(-11.32 -10.37)"/><path class="cls-4" d="M312.12,341.54c0,.15-54.49.26-121.68.26s-121.7-.11-121.7-.26,54.47-.26,121.7-.26S312.12,341.4,312.12,341.54Z" transform="translate(-11.32 -10.37)"/><path class="cls-4" d="M68.74,375.11a.75.75,0,0,1,0-.24c0-.19,0-.42,0-.71,0-.62-.05-1.54-.06-2.72,0-2.41,0-5.82,0-10,0-8.46.06-20.14-.33-33a140.29,140.29,0,0,0-1.4-18.09c-.18-.66-.36-1.31-.53-2s-.5-1.25-.76-1.85c-.53-1.21-1.07-2.37-1.66-3.46a36.27,36.27,0,0,0-3.74-5.76,27.64,27.64,0,0,0-4-4,21.41,21.41,0,0,0-3.6-2.31c-2.11-1-3.42-1.29-3.39-1.37l.24.05.68.18a15,15,0,0,1,2.56,1A20.54,20.54,0,0,1,56.39,293a26.51,26.51,0,0,1,4.07,4,35,35,0,0,1,3.84,5.79c.61,1.09,1.16,2.26,1.7,3.47.27.61.52,1.24.78,1.87s.37,1.35.56,2a135,135,0,0,1,1.45,18.16c.39,12.91.26,24.6.18,33.05-.06,4.2-.11,7.61-.14,10,0,1.15,0,2.06,0,2.72l0,.71A1.1,1.1,0,0,1,68.74,375.11Z" transform="translate(-11.32 -10.37)"/><path class="cls-4" d="M48.27,307.89a1.55,1.55,0,0,1,.82-.26,3.42,3.42,0,0,1,2.25.63,3.47,3.47,0,0,1,1.1,1.25,3,3,0,0,1,.29,1.9,3.72,3.72,0,0,1-2.87,3.07,3.82,3.82,0,0,1-3.8-1.81,3.39,3.39,0,0,1-.48-1.86,3.65,3.65,0,0,1,.44-1.6,3.69,3.69,0,0,1,1.69-1.62c.51-.23.82-.24.83-.21s-.29.12-.74.39a3.75,3.75,0,0,0-1.45,1.61,3.1,3.1,0,0,0,.12,3,3.36,3.36,0,0,0,3.3,1.55,3.27,3.27,0,0,0,2.49-2.63,2.84,2.84,0,0,0-1.14-2.77,3.41,3.41,0,0,0-2-.72C48.57,307.83,48.28,307.93,48.27,307.89Z" transform="translate(-11.32 -10.37)"/><path class="cls-4" d="M49.66,327.63A4.87,4.87,0,0,1,48.27,326a9.85,9.85,0,0,1-.12-10,4.76,4.76,0,0,1,1.35-1.67c.07.05-.45.68-1,1.84A10.68,10.68,0,0,0,47.36,321a10.83,10.83,0,0,0,1.23,4.82C49.19,327,49.73,327.57,49.66,327.63Z" transform="translate(-11.32 -10.37)"/><path class="cls-4" d="M46.45,297.94a11.08,11.08,0,0,1-.31,1.49,9.22,9.22,0,0,0,1.46,6.87,12.68,12.68,0,0,1,.89,1.24s-.56-.27-1.18-1a8,8,0,0,1-1.53-7.17A3,3,0,0,1,46.45,297.94Z" transform="translate(-11.32 -10.37)"/><path class="cls-4" d="M40.46,309c.11-.1,1,.84,2.46,1.56s2.71,1,2.69,1.13a4.51,4.51,0,0,1-2.93-.67A4.42,4.42,0,0,1,40.46,309Z" transform="translate(-11.32 -10.37)"/><path class="cls-4" d="M344.61,375.11c0,.15-69.38.26-155,.26s-154.95-.11-154.95-.26,69.36-.26,155-.26S344.61,375,344.61,375.11Z" transform="translate(-11.32 -10.37)"/><path class="cls-4" d="M311.05,326.56c.15,0,.26,10.86.26,24.26s-.11,24.26-.26,24.26-.26-10.86-.26-24.26S310.91,326.56,311.05,326.56Z" transform="translate(-11.32 -10.37)"/><path class="cls-4" d="M208.34,242.66s-.16,0-.48,0l-1.4.05-5.37.15-19.78.46-65.24,1.31c-6.37.16-12.6.14-18.58.53a63,63,0,0,0-16.92,3.09,29.88,29.88,0,0,0-12.87,8.44,28.16,28.16,0,0,0-3.94,5.82,37.43,37.43,0,0,0-2.45,6,56.64,56.64,0,0,0-2,11c-.31,3.3-.34,6.16-.36,8.49s0,4.15.07,5.38c0,.59,0,1.06,0,1.39s0,.48,0,.48,0-.16,0-.47,0-.8-.09-1.4c-.06-1.23-.14-3-.16-5.38s0-5.2.27-8.51a56.42,56.42,0,0,1,2-11.11,37.22,37.22,0,0,1,2.44-6.11,28.51,28.51,0,0,1,4-5.93,30.19,30.19,0,0,1,13-8.6,63.23,63.23,0,0,1,17-3.15c6-.4,12.24-.38,18.61-.54L181.31,243l19.77-.29,5.38-.05h1.4A4.34,4.34,0,0,1,208.34,242.66Z" transform="translate(-11.32 -10.37)"/><path class="cls-4" d="M129.6,276.91s-.33.17-.84.56a4.53,4.53,0,0,0-1.55,2.16,3.89,3.89,0,0,0,.55,3.72,4.06,4.06,0,0,0,7.31-1.74,3.87,3.87,0,0,0-1.18-3.57,4.55,4.55,0,0,0-2.36-1.24c-.63-.11-1-.06-1-.11a2.11,2.11,0,0,1,1-.09,4.56,4.56,0,0,1,2.58,1.17,4.47,4.47,0,0,1,1.17,1.63,4.08,4.08,0,0,1,.23,2.29,4.5,4.5,0,0,1-8.16,1.95,4.16,4.16,0,0,1-.82-2.16,4.49,4.49,0,0,1,.3-2,4.55,4.55,0,0,1,1.78-2.2A2.22,2.22,0,0,1,129.6,276.91Z" transform="translate(-11.32 -10.37)"/><path class="cls-4" d="M125.39,302.82a12.1,12.1,0,0,1-.76-3,17,17,0,0,1,.16-7.38,10.13,10.13,0,0,1,4.31-5.94,7,7,0,0,1,2.09-.85,2.06,2.06,0,0,1,.82-.07,11.64,11.64,0,0,0-2.71,1.23,10.34,10.34,0,0,0-4,5.77,18.72,18.72,0,0,0-.3,7.19C125.23,301.66,125.47,302.8,125.39,302.82Z" transform="translate(-11.32 -10.37)"/><path class="cls-4" d="M129,261.46a22.92,22.92,0,0,0-1.47,2.21,9.07,9.07,0,0,0-.84,6.12,9.16,9.16,0,0,0,3.41,5.16,24.19,24.19,0,0,0,2.29,1.35,1.77,1.77,0,0,1-.72-.16,7.26,7.26,0,0,1-1.78-.89,8.7,8.7,0,0,1-2.68-11.76,7.57,7.57,0,0,1,1.21-1.58C128.79,261.59,129,261.44,129,261.46Z" transform="translate(-11.32 -10.37)"/><path class="cls-4" d="M128.11,281.48a50.88,50.88,0,0,0-5.42,1.22,50.5,50.5,0,0,0-5.06,2.31,14.58,14.58,0,0,1,10.48-3.53Z" transform="translate(-11.32 -10.37)"/><g class="cls-6"><path d="M95.8,342.45a50.21,50.21,0,0,0,34,10.25Q126,370.34,122.21,388c-.67,3.14-1.3,6.63.34,9.38,2.3,3.87,7.65,4.26,12.15,4.2,5-.07,10.22-.19,14.66-2.51,6.3-3.29,9.67-10.24,12.11-16.91S166,368.34,171,363.32a39,39,0,0,0,22.15,12.62c2.5.46,5.34.6,7.35-1s2.56-4.42,2.05-6.9a20.32,20.32,0,0,0-3.27-6.79q-7.32-11.36-14.63-22.71c-2-3.07-4.15-6.3-7.5-7.77-2.62-1.15-5.61-1-8.47-.87a390.18,390.18,0,0,0-70.87,10.72" transform="translate(-11.32 -10.37)"/></g><g class="cls-6"><path d="M174,229.92c-5.92,15.64-28,19.22-35.78,34-7.68,14.65,1.83,34.05-6.07,48.57-2.93,5.38-7.95,9.39-10.81,14.8-1.93,3.65-2.92,8-6,10.69-3.62,3.16-9.23,3.1-13.58,1.06s-7.69-5.7-10.79-9.37c-5.8-6.89-11.25-14.33-14-22.91C72.33,292,76.61,275.31,86,263s23.27-20.67,37.94-25.65,30.2-6.88,45.62-8.32" transform="translate(-11.32 -10.37)"/></g><path class="cls-4" d="M102.92,188.79a24.41,24.41,0,0,1,9-8.32,16,16,0,0,1,12-1.2,11.92,11.92,0,0,1,8,8.64c.63,3.2-.22,6.79,1.43,9.6,1.91,3.24,6.5,4.27,8.11,7.67a7.37,7.37,0,0,1-.49,6.52,20,20,0,0,1-4.39,5.14,10.94,10.94,0,0,1,2.74,2.46,3.76,3.76,0,0,1,.58,3.51,5.12,5.12,0,0,1-3,2.39,29.63,29.63,0,0,1-17.69,1.67c-1.58-.35-3.39-.78-4.69.18" transform="translate(-11.32 -10.37)"/><path class="cls-7" d="M143,200.65l-3.23,9.8,21.87,12.4-22,.72,1.65,17.82L183.59,231s2.54-17.27-40.64-30.35l-3-.71a3.44,3.44,0,0,1-2.42-2.1h0a3.75,3.75,0,0,0-1.73-1.93L132.16,194l0,2.86,2,2.33-.32,5.54a5,5,0,0,0,3.84,5.21l2,.48" transform="translate(-11.32 -10.37)"/><path class="cls-8" d="M95.06,236.05c-.87,0-8.94,2-13.56,7.85s-11.3,27.93-11.3,27.93l17,2.94,7.33,18.44s43.45-5.69,41.14-8a87.72,87.72,0,0,0-7.05-5.82l10-33.31,12-6.47L146.63,223l-24.17,3.27Z" transform="translate(-11.32 -10.37)"/><path class="cls-5" d="M136.6,253.78c0,.15-13.55.27-30.25.27s-30.26-.12-30.26-.27,13.55-.26,30.26-.26S136.6,253.64,136.6,253.78Z" transform="translate(-11.32 -10.37)"/><path class="cls-5" d="M133.89,263.58c0,.14-13.55.26-30.25.26s-30.26-.12-30.26-.26,13.55-.26,30.26-.26S133.89,263.43,133.89,263.58Z" transform="translate(-11.32 -10.37)"/><path class="cls-5" d="M133.89,274.15c0,.14-10.26.26-22.91.26s-22.92-.12-22.92-.26,10.26-.26,22.92-.26S133.89,274,133.89,274.15Z" transform="translate(-11.32 -10.37)"/><path class="cls-5" d="M137.41,284.33c0,.15-10.26.26-22.92.26s-22.91-.11-22.91-.26,10.25-.26,22.91-.26S137.41,284.19,137.41,284.33Z" transform="translate(-11.32 -10.37)"/><path class="cls-5" d="M148.25,240.62c0,.14-6.77.26-15.13.26s-15.14-.12-15.14-.26,6.78-.26,15.14-.26S148.25,240.48,148.25,240.62Z" transform="translate(-11.32 -10.37)"/><path class="cls-5" d="M149.35,230.24c0,.14-6.74.42-15.07.61s-15.09.24-15.09.09,6.74-.42,15.07-.61S149.35,230.09,149.35,230.24Z" transform="translate(-11.32 -10.37)"/><path class="cls-4" d="M90.75,258.87a67.34,67.34,0,0,1-1.63,8.18A67.51,67.51,0,0,1,87,275.11a68.36,68.36,0,0,1,1.62-8.18A67,67,0,0,1,90.75,258.87Z" transform="translate(-11.32 -10.37)"/><polygon class="cls-7" points="126.72 373.35 114.06 413.29 129.32 414.82 143.66 380.13 126.72 373.35"/><path class="cls-9" d="M149.21,409.66l-7.27,18s15.88,13.44,14.87,16.91l-35.47-12.85,10.18-28.56Z" transform="translate(-11.32 -10.37)"/><path class="cls-2" d="M131.53,422.18a1.54,1.54,0,0,0-1.6,1.29,1.49,1.49,0,0,0,1.26,1.6,1.63,1.63,0,0,0,1.69-1.38,1.54,1.54,0,0,0-1.5-1.52" transform="translate(-11.32 -10.37)"/><path class="cls-2" d="M121.34,431.75l1.14-2.84,33.58,13.38s1.33,1.26.75,2.31Z" transform="translate(-11.32 -10.37)"/><path class="cls-4" d="M142.58,427.71c-.07.17-1-.06-2,.19s-1.77.81-1.9.68.48-1,1.76-1.31S142.67,427.57,142.58,427.71Z" transform="translate(-11.32 -10.37)"/><path class="cls-4" d="M145.74,430.6c0,.18-.88.2-1.73.72s-1.3,1.24-1.47,1.17.07-1.09,1.15-1.72S145.8,430.43,145.74,430.6Z" transform="translate(-11.32 -10.37)"/><path class="cls-4" d="M146.24,435.82c-.17,0-.1-1,.69-1.76s1.74-.87,1.76-.7-.67.49-1.3,1.15S146.42,435.86,146.24,435.82Z" transform="translate(-11.32 -10.37)"/><path class="cls-4" d="M143.78,423.42c-.13.13-.84-.39-1.84-.68s-1.88-.26-1.91-.44.92-.53,2.09-.18S143.92,423.32,143.78,423.42Z" transform="translate(-11.32 -10.37)"/><path class="cls-4" d="M145.18,419.76a3.55,3.55,0,0,1-1.77-.66,8.35,8.35,0,0,1-1.65-1.24,9.17,9.17,0,0,1-.83-.91,2.46,2.46,0,0,1-.38-.61.8.8,0,0,1,.25-.95,1,1,0,0,1,.9-.12,2.26,2.26,0,0,1,.64.33,6.27,6.27,0,0,1,1,.78,6.37,6.37,0,0,1,1.25,1.67c.55,1.06.6,1.8.52,1.82s-.3-.66-.91-1.59a7.38,7.38,0,0,0-1.26-1.47,6.53,6.53,0,0,0-.91-.68c-.34-.24-.65-.36-.81-.22s-.07.07,0,.21a2,2,0,0,0,.28.45,10.87,10.87,0,0,0,.74.87,10.64,10.64,0,0,0,1.48,1.28C144.57,419.37,145.22,419.66,145.18,419.76Z" transform="translate(-11.32 -10.37)"/><path class="cls-4" d="M144.87,419.92c-.08,0-.19-.74.15-1.88a6.14,6.14,0,0,1,.94-1.86,5.57,5.57,0,0,1,.85-.91,1.54,1.54,0,0,1,1.46-.49.89.89,0,0,1,.56.76,2.31,2.31,0,0,1-.06.72,4.17,4.17,0,0,1-.43,1.2,4.35,4.35,0,0,1-1.42,1.56,2.45,2.45,0,0,1-1.82.55,16.08,16.08,0,0,0,1.55-.92,4.15,4.15,0,0,0,1.51-2.5c.08-.4.05-.75-.11-.77a1.1,1.1,0,0,0-.83.36,6.61,6.61,0,0,0-.79.8,7.2,7.2,0,0,0-1,1.65C145,419.21,145,419.93,144.87,419.92Z" transform="translate(-11.32 -10.37)"/><polygon class="cls-7" points="174.77 335.76 193.67 368.61 209.13 358.69 190.15 325.34 174.77 335.76"/><path class="cls-9" d="M215.11,359.68l9.77,16.81s20.37-4.27,22.47-1.34l-31.92,20.1-16.28-25.58Z" transform="translate(-11.32 -10.37)"/><path class="cls-2" d="M214.14,381.32a1.53,1.53,0,0,0,0,2.06,1.49,1.49,0,0,0,2,0,1.63,1.63,0,0,0-.05-2.18,1.54,1.54,0,0,0-2.12.26" transform="translate(-11.32 -10.37)"/><path class="cls-2" d="M215.43,395.25l-1.54-2.65,31.18-18.28s1.81-.27,2.28.83Z" transform="translate(-11.32 -10.37)"/><path class="cls-4" d="M225.29,376c.1.16-.64.72-1.09,1.71s-.45,1.89-.63,1.92-.52-1,.05-2.2S225.24,375.84,225.29,376Z" transform="translate(-11.32 -10.37)"/><path class="cls-4" d="M229.51,375.28c.13.13-.38.82-.49,1.81s.17,1.79,0,1.88-.81-.73-.65-2S229.42,375.13,229.51,375.28Z" transform="translate(-11.32 -10.37)"/><path class="cls-4" d="M233.94,378.09c-.12.12-.83-.52-1-1.63s.38-1.9.53-1.81,0,.83.11,1.73S234.08,378,233.94,378.09Z" transform="translate(-11.32 -10.37)"/><path class="cls-4" d="M222.64,372.42c0,.18-.82.42-1.67,1s-1.35,1.33-1.52,1.24.15-1.05,1.15-1.76S222.64,372.25,222.64,372.42Z" transform="translate(-11.32 -10.37)"/><path class="cls-4" d="M220.61,369.06c0,.07-.51.55-1.6,1a8.74,8.74,0,0,1-2,.54,8,8,0,0,1-1.22.09,2.37,2.37,0,0,1-.72-.07.81.81,0,0,1-.6-.79,1,1,0,0,1,.46-.78,2.47,2.47,0,0,1,.65-.3,7,7,0,0,1,1.21-.28,6.45,6.45,0,0,1,2.08,0c1.18.22,1.8.64,1.76.7s-.7-.16-1.81-.25a7.29,7.29,0,0,0-1.94.09,6.86,6.86,0,0,0-1.09.3c-.4.12-.68.3-.68.5s0,.11.15.16a1.64,1.64,0,0,0,.53.05,8.62,8.62,0,0,0,1.15-.05,10.18,10.18,0,0,0,1.92-.38A14.06,14.06,0,0,1,220.61,369.06Z" transform="translate(-11.32 -10.37)"/><path class="cls-4" d="M220.55,369.41c0,.06-.7-.3-1.4-1.27a6.26,6.26,0,0,1-.88-1.89,6,6,0,0,1-.2-1.23,1.54,1.54,0,0,1,.51-1.45.88.88,0,0,1,.95,0,2.52,2.52,0,0,1,.53.48,4.33,4.33,0,0,1,.68,1.08,4.4,4.4,0,0,1,.36,2.08c-.11,1.22-.64,1.81-.69,1.77a13.67,13.67,0,0,0,.23-1.79,4.39,4.39,0,0,0-.44-1.82,3.67,3.67,0,0,0-.61-.9c-.26-.31-.56-.5-.67-.39a1.09,1.09,0,0,0-.23.88,6.46,6.46,0,0,0,.15,1.11,7,7,0,0,0,.7,1.79C220.08,368.86,220.62,369.34,220.55,369.41Z" transform="translate(-11.32 -10.37)"/><path class="cls-4" d="M129.84,341.5,167,316.26l23.41,45.57,21.28-11.51s-24.51-59.78-33.31-61.71c-4.93-1.08-61.47,9.72-61.47,9.72l-6.31-3.18-16-1.94-1,2.58a54.6,54.6,0,0,0,1.78,44.13l.78,1.58Z" transform="translate(-11.32 -10.37)"/><path class="cls-4" d="M116.81,309.94c.27,1.25,30.95,30,30.95,30l-17.7,59.48,26.42,5.06L183,332.79l-48.49-47.56-22.15,9.32Z" transform="translate(-11.32 -10.37)"/><path class="cls-9" d="M167,316.26c.08.12-8.17,5.87-18.41,12.84s-18.62,12.52-18.7,12.4,8.16-5.86,18.41-12.83S166.87,316.15,167,316.26Z" transform="translate(-11.32 -10.37)"/><path class="cls-9" d="M186,353.35a11.38,11.38,0,0,1-.9-1.38c-.55-.9-1.31-2.22-2.24-3.87-1.85-3.29-4.31-7.89-6.91-13s-4.9-9.83-6.51-13.24c-.8-1.71-1.45-3.09-1.88-4.06a8,8,0,0,1-.61-1.52,11.77,11.77,0,0,1,.8,1.44l2,4,6.64,13.16c2.6,5.13,5,9.75,6.77,13.09l2.1,3.94A10.06,10.06,0,0,1,186,353.35Z" transform="translate(-11.32 -10.37)"/><path class="cls-9" d="M153.31,329.3a46.29,46.29,0,0,1-2.84,6.37,48.12,48.12,0,0,1-3.31,6.15,46.68,46.68,0,0,1,2.84-6.38A45.92,45.92,0,0,1,153.31,329.3Z" transform="translate(-11.32 -10.37)"/><path class="cls-7" d="M70.2,271.83l-6,22.16a11.61,11.61,0,0,0,1,8.53h0a11.62,11.62,0,0,0,12.85,5.82l47.55-11.72-5-9.87L83.2,290l4-15.23Z" transform="translate(-11.32 -10.37)"/><polygon class="cls-9" points="79.97 295.1 80.59 291.88 106.36 287.25 113.85 247.52 161.71 241.81 153.67 284.23 79.97 295.1"/><path class="cls-1" d="M146.66,279.28a2.7,2.7,0,1,1,2.77-2.18A2.51,2.51,0,0,1,146.66,279.28Z" transform="translate(-11.32 -10.37)"/><path class="cls-7" d="M98.29,191.53l.09,2.87,1.08,43c.13,5,4.52,8.86,9.86,8.69h0c5.4-.18,9.74-4.41,9.7-9.45,0-5.3,0-10.88,0-10.88s6.81-1.21,8.12-10.13c.65-4.43.34-11.69-.1-17.61a9.4,9.4,0,0,0-10.47-8.65Z" transform="translate(-11.32 -10.37)"/><path class="cls-4" d="M123.59,203a1.14,1.14,0,0,1-1.08,1.16,1.09,1.09,0,0,1-1.19-1A1.14,1.14,0,0,1,122.4,202,1.09,1.09,0,0,1,123.59,203Z" transform="translate(-11.32 -10.37)"/><path class="cls-4" d="M125.51,201.82c-.14.15-1-.48-2.24-.46s-2.12.64-2.26.49.08-.33.47-.62a3.08,3.08,0,0,1,1.8-.58,3,3,0,0,1,1.79.55C125.45,201.48,125.58,201.75,125.51,201.82Z" transform="translate(-11.32 -10.37)"/><path class="cls-4" d="M111.47,203.43a1.14,1.14,0,0,1-1.09,1.16,1.09,1.09,0,0,1-1.19-1,1.14,1.14,0,0,1,1.09-1.17A1.1,1.1,0,0,1,111.47,203.43Z" transform="translate(-11.32 -10.37)"/><path class="cls-4" d="M113.44,202.19c-.14.15-1-.48-2.24-.46s-2.12.64-2.26.49.08-.33.47-.63a3.12,3.12,0,0,1,1.8-.57,3,3,0,0,1,1.79.55C113.38,201.85,113.51,202.12,113.44,202.19Z" transform="translate(-11.32 -10.37)"/><path class="cls-4" d="M118,211.25a8.5,8.5,0,0,1,2-.39c.32,0,.61-.1.66-.31a1.5,1.5,0,0,0-.22-.93l-1-2.38a41.87,41.87,0,0,1-2.16-6.22,40,40,0,0,1,2.65,6l.92,2.39a1.85,1.85,0,0,1,.18,1.23.8.8,0,0,1-.51.46,1.84,1.84,0,0,1-.53.08A8.28,8.28,0,0,1,118,211.25Z" transform="translate(-11.32 -10.37)"/><path class="cls-10" d="M119,225.77a22.62,22.62,0,0,1-12-3s3,6.08,11.86,5.15Z" transform="translate(-11.32 -10.37)"/><path class="cls-4" d="M113.93,200.17c-.13.33-1.35.11-2.8.22s-2.63.44-2.81.13c-.08-.14.14-.45.63-.75a4.86,4.86,0,0,1,4.27-.27C113.74,199.74,114,200,113.93,200.17Z" transform="translate(-11.32 -10.37)"/><path class="cls-4" d="M125,197.56c-.22.28-1.07,0-2.08,0s-1.88.21-2.08-.08c-.09-.14,0-.42.42-.69a2.84,2.84,0,0,1,1.68-.48,2.88,2.88,0,0,1,1.67.54C125,197.13,125.09,197.42,125,197.56Z" transform="translate(-11.32 -10.37)"/><path class="cls-10" d="M117.87,215.7a2.08,2.08,0,0,1-1.07-.11l-1-.29-.93-.34a2.08,2.08,0,0,1-.93-.55c-.21-.28-.17-.76.31-1.19a2.59,2.59,0,0,1,4,1.34C118.46,215.19,118.2,215.6,117.87,215.7Z" transform="translate(-11.32 -10.37)"/><path class="cls-4" d="M118,215.59a5.2,5.2,0,0,0-2.16-1.51,5.14,5.14,0,0,0-2.61.29c0-.05.16-.33.65-.58a3,3,0,0,1,3.82,1C118.05,215.22,118.1,215.57,118,215.59Z" transform="translate(-11.32 -10.37)"/><path class="cls-4" d="M108.59,185.73a11.21,11.21,0,0,1-1.61,14c-2.13,2-5.3,3.53-5.51,6.43-.24,3.21,3.48,5.62,3.48,8.84s-3.81,5.42-4.56,8.65c-.59,2.59,1,5.2,2.76,7.17s4,3.71,5,6.15a10.9,10.9,0,0,1-.3,8.56,27.3,27.3,0,0,1-5,7.2,33.33,33.33,0,0,0-8.24-1.84c.18-1.06.35-2.12.53-3.18a3,3,0,0,1-2.15,2.7,7.88,7.88,0,0,1-3.68.05,59.84,59.84,0,0,1-11-2.83,19.84,19.84,0,0,0,4-5,6.67,6.67,0,0,0,.11-6.2c-.88-1.49-2.5-2.45-3.31-4-1.21-2.29-.21-5.22,1.51-7.16s4.06-3.23,6.11-4.83,3.93-3.76,4.09-6.35c.22-3.37-2.51-6.43-2.17-9.79.38-3.82,4.42-6.16,6-9.65,1.14-2.53,1-5.66,2.75-7.8A6.71,6.71,0,0,1,103,184.6a12.44,12.44,0,0,1,5.76,2" transform="translate(-11.32 -10.37)"/><path class="cls-4" d="M119.76,226.73c-1.6.89-1.51,3.33-.53,4.88s2.55,2.67,3.52,4.23a6.89,6.89,0,0,1-1.63,8.81L125,246.1l.84-.47,2.36-1.33L127.05,247h2.46a7,7,0,0,0,5.78-11.14c-1-1.4-2.58-2.52-2.92-4.21-.42-2,1.13-3.89,1.88-5.83a8.26,8.26,0,0,0-2.68-9.34" transform="translate(-11.32 -10.37)"/></g><g id="Speech_Bubble" data-name="Speech Bubble"><path class="cls-5" d="M44,145.81a1.32,1.32,0,0,1,.76,1.2v6.66a1.34,1.34,0,0,1-1.7,1.29,4.12,4.12,0,0,0-3.26.5A3.75,3.75,0,0,0,38,157.83a3.8,3.8,0,0,0,.68,2.91,4.22,4.22,0,0,0,2.75,1.82,5,5,0,0,0,5.24-3.38,1.33,1.33,0,1,1,2.54.81,7.71,7.71,0,0,1-8.2,5.22,6.92,6.92,0,0,1-4.53-3,6.52,6.52,0,0,1-1.1-5,6.42,6.42,0,0,1,3-4.12,7.05,7.05,0,0,1,3.67-1V147a1.34,1.34,0,0,1,1.34-1.34A1.41,1.41,0,0,1,44,145.81Z" transform="translate(-11.32 -10.37)"/><path class="cls-5" d="M42.15,143a1.1,1.1,0,0,1,1.06-1.13,1.1,1.1,0,1,1,.06,2.19A1.09,1.09,0,0,1,42.15,143Z" transform="translate(-11.32 -10.37)"/><path class="cls-4" d="M74.77,178.67s-.33.05-.88.27A4.07,4.07,0,0,0,72,180.53a3.77,3.77,0,0,0-.57,1.59A3.33,3.33,0,0,0,71.8,184a3.67,3.67,0,0,0,6.88-.41,3.3,3.3,0,0,0,.11-1.91,3.85,3.85,0,0,0-.75-1.5,4,4,0,0,0-2-1.36c-.57-.16-.91-.14-.91-.17a.64.64,0,0,1,.24,0,1.6,1.6,0,0,1,.3,0,2.41,2.41,0,0,1,.4.07,4,4,0,0,1,2.15,1.34,4.05,4.05,0,0,1,.84,1.58,3.61,3.61,0,0,1-.1,2.05,4.17,4.17,0,0,1-1.28,1.86,3.68,3.68,0,0,1-4.59.27,4.08,4.08,0,0,1-1.5-1.7,3.62,3.62,0,0,1-.33-2,4.12,4.12,0,0,1,2.62-3.25,3.26,3.26,0,0,1,.39-.12l.29-.05Z" transform="translate(-11.32 -10.37)"/><path class="cls-4" d="M84.5,188.34s-.2,0-.54.19a2.57,2.57,0,0,0-1.15,1,2.17,2.17,0,0,0-.13,2.14,2.27,2.27,0,0,0,4.24-.25,2.17,2.17,0,0,0-.39-2.11,2.56,2.56,0,0,0-1.26-.86c-.35-.1-.56-.1-.56-.12a1.09,1.09,0,0,1,.59,0,2.55,2.55,0,0,1,1.38.84,2.52,2.52,0,0,1,.54,1,2.39,2.39,0,0,1,0,1.32,2.52,2.52,0,0,1-4.73.28,2.23,2.23,0,0,1-.21-1.3,2.63,2.63,0,0,1,.41-1.07,2.49,2.49,0,0,1,1.28-1A1.23,1.23,0,0,1,84.5,188.34Z" transform="translate(-11.32 -10.37)"/><path class="cls-4" d="M73.16,158.84s0-.17,0-.5,0-.83,0-1.47q0-.48,0-1.08c0-.4-.06-.83-.1-1.31s-.07-1-.11-1.51a6.29,6.29,0,0,0-.12-.84c0-.28-.1-.58-.15-.88A29.85,29.85,0,0,0,70,142.8a30.71,30.71,0,0,0-7.13-9.32l-1.25-1.1c-.44-.34-.91-.66-1.37-1-.24-.16-.47-.33-.7-.5a7.06,7.06,0,0,0-.73-.48l-1.54-.89-.78-.45-.82-.37L54,127.92c-.57-.24-1.18-.41-1.77-.62l-.9-.31c-.16,0-.3-.11-.46-.15l-.47-.11a28,28,0,0,0-3.84-.75c-.66-.08-1.32-.19-2-.24l-2,0c-.34,0-.68,0-1,0l-1,.07c-.69.06-1.39.09-2.09.18a30.93,30.93,0,0,0-4.19.88l-1,.29c-.18.05-.36.09-.53.15l-.51.2-2.06.8c-.67.3-1.32.66-2,1-.33.18-.67.33-1,.53l-1,.6a36.36,36.36,0,0,0-3.71,2.69l-1.69,1.6-.43.4-.39.44-.77.88-.78.89-.7,1-.69,1-.35.48c-.11.17-.2.35-.31.52L15,142.28l-1,2.21a30.59,30.59,0,0,0-1.51,19.35l.66,2.34.87,2.25.22.55.27.54.54,1.06.54,1.06.63,1,.63,1,.31.5.36.46L19,176.43a35.37,35.37,0,0,0,3.25,3.23l.85.74c.28.26.6.45.9.68.61.43,1.2.89,1.82,1.29l1.91,1.11.47.27c.16.09.33.16.5.24l1,.45a34,34,0,0,0,4,1.52c.68.19,1.37.33,2,.49l1,.24c.34.07.69.1,1,.15l2,.26c.67.06,1.34.05,2,.08a29.89,29.89,0,0,0,3.92-.15l.48,0,.47-.08.94-.17c.62-.11,1.24-.19,1.85-.34l1.77-.5.88-.24.84-.32,1.65-.64a7.22,7.22,0,0,0,.8-.36l.77-.39c.51-.26,1-.51,1.51-.78l1.4-.88a30.82,30.82,0,0,0,8.49-8.11l.75-1,.62-1.07.6-1c.1-.17.2-.33.29-.5s.16-.34.23-.51c.32-.68.61-1.33.9-1.94s.44-1.25.65-1.83q.15-.44.3-.84a6.21,6.21,0,0,0,.24-.81c.12-.53.24-1,.35-1.48s.22-.88.29-1.27.1-.76.15-1.08c.09-.63.15-1.12.2-1.45s.08-.5.08-.5,0,.17,0,.5-.1.82-.18,1.46c0,.32-.08.68-.13,1.08s-.18.82-.28,1.28-.22,1-.34,1.49a5.22,5.22,0,0,1-.23.81c-.1.27-.19.56-.29.85-.21.58-.38,1.2-.65,1.83s-.57,1.28-.88,2l-.24.52c-.08.17-.19.33-.28.5-.2.34-.4.68-.6,1l-.62,1.07c-.24.35-.5.69-.75,1.05a30.69,30.69,0,0,1-8.51,8.19l-1.41.89c-.49.28-1,.52-1.52.79l-.77.39a7.28,7.28,0,0,1-.8.37l-1.67.65-.84.32-.88.25-1.79.5c-.61.15-1.24.23-1.86.35l-1,.17-.47.08-.49,0a28.54,28.54,0,0,1-3.94.15c-.67,0-1.35,0-2-.07l-2-.26c-.35-.05-.69-.08-1-.15l-1-.24c-.68-.16-1.38-.3-2.06-.49a34,34,0,0,1-4-1.53l-1-.46L28,184l-.48-.28-1.92-1.12c-.63-.4-1.23-.86-1.84-1.29-.3-.23-.63-.43-.91-.68l-.86-.76a34.67,34.67,0,0,1-3.28-3.25l-1.44-1.86-.37-.46-.32-.5-.63-1-.64-1-.54-1.07-.55-1.07L14,169.1l-.22-.56c-.29-.76-.59-1.51-.88-2.27s-.44-1.57-.67-2.36a30.78,30.78,0,0,1,1.53-19.53l1-2.23c.41-.7.82-1.4,1.22-2.1.11-.17.2-.35.31-.52l.35-.49.71-1,.7-1,.79-.89.78-.9.39-.44.43-.4,1.71-1.61a36,36,0,0,1,3.75-2.71l1-.61c.32-.2.67-.35,1-.53.67-.33,1.33-.69,2-1L32,127.2l.52-.2c.17-.06.35-.1.53-.15l1-.3a33.34,33.34,0,0,1,4.22-.88c.71-.09,1.41-.11,2.11-.17l1.05-.08c.34,0,.69,0,1,0l2,.06c.68,0,1.35.16,2,.23a30.11,30.11,0,0,1,3.87.77l.48.11.45.15.91.31c.6.22,1.21.4,1.78.64l1.69.77.84.38.78.46,1.54.9a7.2,7.2,0,0,1,.74.48l.7.51c.47.34.94.66,1.38,1l1.26,1.1a30.8,30.8,0,0,1,7.13,9.41,29.41,29.41,0,0,1,2.74,8.5c0,.31.1.6.15.89a6.05,6.05,0,0,1,.1.83c0,.55.08,1.06.11,1.53s.07.91.08,1.31,0,.76,0,1.08c0,.64,0,1.13,0,1.47Z" transform="translate(-11.32 -10.37)"/></g><g id="Sreen"><rect class="cls-3" x="196.19" y="0.26" width="206.45" height="313.39"/><rect class="cls-11" x="195.76" y="16.22" width="206.51" height="134.87"/><path class="cls-12" d="M340.4,303.81" transform="translate(-11.32 -10.37)"/><path class="cls-4" d="M257.53,180.48v3.06H262v1.09h-4.42v3.55h-1.25v-8.8h6.21v1.1Z" transform="translate(-11.32 -10.37)"/><path class="cls-4" d="M263.26,184.85a3.46,3.46,0,1,1,3.47,3.41A3.32,3.32,0,0,1,263.26,184.85Zm5.7,0a2.24,2.24,0,1,0-2.23,2.35A2.18,2.18,0,0,0,269,184.85Z" transform="translate(-11.32 -10.37)"/><path class="cls-4" d="M275.44,181.46v1.17a1.37,1.37,0,0,0-.28,0,2,2,0,0,0-2.1,2.26v3.31h-1.2v-6.66H273v1.12A2.55,2.55,0,0,1,275.44,181.46Z" transform="translate(-11.32 -10.37)"/><path class="cls-4" d="M283.23,181.52v5.76c0,2.35-1.19,3.42-3.45,3.42a5,5,0,0,1-3.18-1l.57-.93a4.14,4.14,0,0,0,2.57.86c1.57,0,2.29-.73,2.29-2.24v-.52a3.06,3.06,0,0,1-2.4,1,3.23,3.23,0,1,1,0-6.45,3,3,0,0,1,2.46,1.09v-1Zm-1.18,3.16a2.3,2.3,0,0,0-4.59,0,2.3,2.3,0,0,0,4.59,0Z" transform="translate(-11.32 -10.37)"/><path class="cls-4" d="M284.92,184.85a3.47,3.47,0,1,1,3.47,3.41A3.32,3.32,0,0,1,284.92,184.85Zm5.71,0a2.25,2.25,0,1,0-2.24,2.35A2.19,2.19,0,0,0,290.63,184.85Z" transform="translate(-11.32 -10.37)"/><path class="cls-4" d="M297.27,187.79a2.26,2.26,0,0,1-1.46.47,1.9,1.9,0,0,1-2.11-2.09v-3.66h-1.13v-1h1.13v-1.46h1.2v1.46h1.92v1H294.9v3.61a1,1,0,0,0,1.05,1.12,1.52,1.52,0,0,0,.94-.31Z" transform="translate(-11.32 -10.37)"/><path class="cls-4" d="M309,184.85a3.24,3.24,0,0,1-3.37,3.41,2.82,2.82,0,0,1-2.32-1.08v3.44h-1.21v-9.1h1.16v1.06a2.81,2.81,0,0,1,2.37-1.12A3.23,3.23,0,0,1,309,184.85Zm-1.22,0a2.25,2.25,0,1,0-2.25,2.35A2.2,2.2,0,0,0,307.79,184.85Z" transform="translate(-11.32 -10.37)"/><path class="cls-4" d="M315.9,184.16v4h-1.14v-.88a2.45,2.45,0,0,1-2.19,1c-1.51,0-2.46-.8-2.46-2s.69-2,2.68-2h1.91v-.24c0-1-.59-1.61-1.79-1.61a3.36,3.36,0,0,0-2.11.72l-.5-.91a4.44,4.44,0,0,1,2.75-.85C314.87,181.46,315.9,182.34,315.9,184.16Zm-1.2,2v-.93h-1.86c-1.2,0-1.54.46-1.54,1s.55,1.08,1.47,1.08A2,2,0,0,0,314.7,186.15Z" transform="translate(-11.32 -10.37)"/><path class="cls-4" d="M317.3,187.48l.5-1a4.23,4.23,0,0,0,2.34.7c1.12,0,1.59-.34,1.59-.91,0-1.5-4.22-.2-4.22-2.85,0-1.2,1.07-2,2.78-2a4.83,4.83,0,0,1,2.43.6l-.52,1a3.47,3.47,0,0,0-1.92-.53c-1.06,0-1.57.39-1.57.92,0,1.57,4.22.29,4.22,2.88,0,1.2-1.1,2-2.88,2A4.81,4.81,0,0,1,317.3,187.48Z" transform="translate(-11.32 -10.37)"/><path class="cls-4" d="M323.6,187.48l.5-1a4.23,4.23,0,0,0,2.34.7c1.12,0,1.59-.34,1.59-.91,0-1.5-4.22-.2-4.22-2.85,0-1.2,1.07-2,2.78-2a4.83,4.83,0,0,1,2.43.6l-.52,1a3.47,3.47,0,0,0-1.92-.53c-1.06,0-1.57.39-1.57.92,0,1.57,4.22.29,4.22,2.88,0,1.2-1.1,2-2.88,2A4.81,4.81,0,0,1,323.6,187.48Z" transform="translate(-11.32 -10.37)"/><path class="cls-4" d="M340.7,181.52l-2.49,6.66h-1.16l-1.92-5.05-1.95,5.05H332l-2.47-6.66h1.14l1.94,5.31,2-5.31h1l2,5.33,2-5.33Z" transform="translate(-11.32 -10.37)"/><path class="cls-4" d="M341.12,184.85a3.46,3.46,0,1,1,3.47,3.41A3.32,3.32,0,0,1,341.12,184.85Zm5.7,0a2.24,2.24,0,1,0-2.23,2.35A2.18,2.18,0,0,0,346.82,184.85Z" transform="translate(-11.32 -10.37)"/><path class="cls-4" d="M353.3,181.46v1.17a1.37,1.37,0,0,0-.28,0,2,2,0,0,0-2.1,2.26v3.31h-1.2v-6.66h1.15v1.12A2.55,2.55,0,0,1,353.3,181.46Z" transform="translate(-11.32 -10.37)"/><path class="cls-4" d="M361,178.85v9.33h-1.16v-1.05a2.81,2.81,0,0,1-2.37,1.13,3.4,3.4,0,0,1,0-6.8,2.82,2.82,0,0,1,2.32,1.07v-3.68Zm-1.2,6a2.24,2.24,0,1,0-2.23,2.35A2.19,2.19,0,0,0,359.81,184.85Z" transform="translate(-11.32 -10.37)"/><path class="cls-4" d="M367.23,181.71c0-.81-.66-1.36-1.79-1.36a2.67,2.67,0,0,0-2.25,1l-.92-.65a3.9,3.9,0,0,1,3.25-1.41c1.81,0,3,.84,3,2.24,0,2.1-2.22,2.24-2.22,3.89H365C365,183.43,367.23,183.16,367.23,181.71Zm-2.39,5.75a.82.82,0,1,1,.82.8A.79.79,0,0,1,364.84,187.46Z" transform="translate(-11.32 -10.37)"/><path d="M392.35,206.25c0,.14-35.38.26-79,.26s-79-.12-79-.26,35.37-.26,79-.26S392.35,206.1,392.35,206.25Z" transform="translate(-11.32 -10.37)"/><path d="M358.63,214.69c0,.15-20.28.26-45.29.26s-45.28-.11-45.28-.26,20.27-.26,45.28-.26S358.63,214.55,358.63,214.69Z" transform="translate(-11.32 -10.37)"/><path class="cls-4" d="M344.34,107.6A24.08,24.08,0,1,0,307,101.89l-4.89,4.57,1.17,8.13-7.61-2.13-6.13,5.72,1.18,8.13-7.61-2.13-5.27,4.92.72,5-4.64-1.3-3.06,2.86-.46,7.53L281.61,146l36.45-34A24.07,24.07,0,0,0,344.34,107.6ZM340.78,78a6.91,6.91,0,1,1-9.76-.34A6.91,6.91,0,0,1,340.78,78Z" transform="translate(-11.32 -10.37)"/><path class="cls-13" d="M344.34,107.6A24.08,24.08,0,1,0,307,101.89l-4.89,4.57,1.17,8.13-7.61-2.13-6.13,5.72,1.18,8.13-7.61-2.13-5.27,4.92.72,5-4.64-1.3-3.06,2.86-.46,7.53L281.61,146l36.45-34A24.07,24.07,0,0,0,344.34,107.6ZM340.78,78a6.91,6.91,0,1,1-9.76-.34A6.91,6.91,0,0,1,340.78,78Z" transform="translate(-11.32 -10.37)"/><path class="cls-4" d="M340.78,78s-.45-.42-1.37-1a6.82,6.82,0,0,0-4.35-1,6.64,6.64,0,1,0,7.26,7.78,6.89,6.89,0,0,0-.65-4.41c-.5-1-.94-1.39-.89-1.43s.13.09.33.3a5.08,5.08,0,0,1,.77,1,6.9,6.9,0,0,1,.86,4.59,7.12,7.12,0,0,1-8.34,5.87,7.15,7.15,0,0,1-5.81-6.23A7.11,7.11,0,0,1,335,75.63a6.91,6.91,0,0,1,4.52,1.18,5.31,5.31,0,0,1,1,.84C340.7,77.86,340.8,78,340.78,78Z" transform="translate(-11.32 -10.37)"/><path class="cls-4" d="M344.34,107.6s-.11.12-.34.34-.61.54-1.06.94a25.63,25.63,0,0,1-4.66,3,24.33,24.33,0,0,1-8.56,2.3,24.64,24.64,0,0,1-11.74-2l.2,0L281.8,146.17l-.11.1-.14,0-11.24-2.81-.23-.06,0-.23c.14-2.35.29-4.92.45-7.53v-.12l.08-.08,3.07-2.86.12-.11.15,0,4.64,1.3-.37.32c-.23-1.54-.47-3.24-.72-5l0-.15.11-.11c1.66-1.55,3.46-3.22,5.27-4.92l.12-.11.16,0,7.61,2.13-.38.33c-.37-2.57-.77-5.34-1.17-8.13l0-.15.11-.11,1.62-1.52,4.51-4.2.12-.11.17,0,7.6,2.13-.38.34q-.58-4.11-1.17-8.14l0-.15.11-.11,4.9-4.56,0,.36a24.55,24.55,0,0,1-3.13-11,23,23,0,0,1,.4-5.57,23.31,23.31,0,0,1,1.6-5.23,24.3,24.3,0,0,1,44.07-1A24.12,24.12,0,0,1,352,91.9a23.77,23.77,0,0,1-2.7,9.27c-.15.29-.3.58-.45.85l-.49.77c-.33.48-.6,1-.92,1.36-.65.79-1.14,1.49-1.64,2s-.84.85-1.11,1.11a5,5,0,0,1-.39.36l.35-.4,1.08-1.14c.47-.5,1-1.21,1.59-2,.3-.4.57-.88.88-1.37l.48-.76c.15-.28.29-.56.44-.86a23.87,23.87,0,1,0-43.05-20.58,23,23,0,0,0-1.55,5.12,22.42,22.42,0,0,0-.39,5.44,24.19,24.19,0,0,0,3.07,10.7l.11.2-.17.16-4.89,4.57.09-.26q.58,4,1.17,8.13l.07.45-.44-.12-7.61-2.13.29-.07-4.51,4.2-1.62,1.52.09-.26,1.17,8.13.07.45-.45-.12-7.6-2.13.29-.07L278,129.31l.09-.26c.24,1.71.49,3.41.71,5l.06.45-.43-.13-4.63-1.3.27-.06c-1.06,1-2.11,2-3.07,2.85l.1-.19c-.17,2.61-.32,5.18-.47,7.53l-.21-.29,11.23,2.84-.25.06,36.5-33.93.09-.09.11,0a24.13,24.13,0,0,0,20.06-.13,26,26,0,0,0,4.68-2.87l1.09-.9Z" transform="translate(-11.32 -10.37)"/><path class="cls-5" d="M343.54,104.87a24.08,24.08,0,1,0-37.36-5.71h0l-4.89,4.57,1.17,8.13-7.6-2.13-6.13,5.72,1.17,8.13-7.6-2.13L277,126.36l.71,5L273.1,130,270,132.88l-.46,7.53,11.23,2.83,36.45-34A24.11,24.11,0,0,0,343.54,104.87ZM340,75.26a6.91,6.91,0,1,1-9.77-.33A6.92,6.92,0,0,1,340,75.26Z" transform="translate(-11.32 -10.37)"/><path class="cls-13" d="M343.54,104.87a24.08,24.08,0,1,0-37.36-5.71h0l-4.89,4.57,1.17,8.13-7.6-2.13-6.13,5.72,1.17,8.13-7.6-2.13L277,126.36l.71,5L273.1,130,270,132.88l-.46,7.53,11.23,2.83,36.45-34A24.11,24.11,0,0,0,343.54,104.87ZM340,75.26a6.91,6.91,0,1,1-9.77-.33A6.92,6.92,0,0,1,340,75.26Z" transform="translate(-11.32 -10.37)"/><path class="cls-4" d="M340,75.26c-.05,0-.46-.42-1.38-1a6.85,6.85,0,0,0-4.34-1,6.65,6.65,0,1,0,7.26,7.78,6.93,6.93,0,0,0-.65-4.4c-.51-1-.94-1.4-.89-1.44a1.77,1.77,0,0,1,.33.3,5.57,5.57,0,0,1,.76,1,6.86,6.86,0,0,1,.87,4.58,7.16,7.16,0,1,1-7.72-8.27,6.88,6.88,0,0,1,4.51,1.18,5.34,5.34,0,0,1,1,.83A1.55,1.55,0,0,1,340,75.26Z" transform="translate(-11.32 -10.37)"/><path class="cls-4" d="M343.54,104.87l-.35.33-1.06,1a24.92,24.92,0,0,1-4.66,3,24.22,24.22,0,0,1-20.29.29l.19,0L281,143.44l-.11.1-.14,0-11.24-2.81-.22-.06v-.24c.14-2.34.3-4.92.45-7.53v-.11l.09-.08,3.06-2.86.12-.11.16,0,4.63,1.3-.37.32c-.22-1.55-.47-3.24-.71-5l0-.16.12-.1,5.26-4.92.13-.11.16,0,7.6,2.13-.38.33c-.37-2.58-.77-5.34-1.17-8.13l0-.16.11-.1,1.63-1.52,4.5-4.2.13-.12.16,0,7.6,2.13-.38.33q-.58-4.11-1.16-8.13l0-.15.12-.11,4.9-4.57-.06.36a24.64,24.64,0,0,1-3.13-11,23.5,23.5,0,0,1,.4-5.57,24.08,24.08,0,0,1,1.6-5.24,24.32,24.32,0,0,1,44.08-1,24.19,24.19,0,0,1,2.36,12.63,23.67,23.67,0,0,1-2.7,9.27l-.44.86-.5.76c-.33.49-.6,1-.91,1.37-.65.78-1.15,1.49-1.64,2s-.85.84-1.11,1.11-.39.36-.39.36.11-.14.35-.4l1.07-1.14c.48-.5,1-1.21,1.59-2,.31-.4.57-.88.89-1.37.15-.25.31-.5.48-.76s.28-.57.43-.86a24.09,24.09,0,0,0,.18-21.64,23.85,23.85,0,0,0-43.22,1.06,23.89,23.89,0,0,0-1.94,10.56A24,24,0,0,0,306.43,99l.12.21-.17.15-4.9,4.58.09-.26q.58,4,1.18,8.13l.06.45-.44-.12-7.6-2.13.28-.07-4.5,4.2-1.63,1.52.1-.27c.4,2.79.79,5.56,1.16,8.14l.07.45-.44-.12-7.6-2.13.28-.07-5.27,4.91.09-.26c.25,1.71.49,3.41.71,5l.06.44-.43-.12L273,130.3l.28-.07-3.07,2.86.09-.19c-.16,2.61-.32,5.18-.47,7.53l-.21-.29L280.87,143l-.25.06,36.51-33.94.08-.08.11,0a24.1,24.1,0,0,0,20.07-.14,26.43,26.43,0,0,0,4.68-2.86c.46-.39.82-.69,1.09-.9A3.67,3.67,0,0,1,343.54,104.87Z" transform="translate(-11.32 -10.37)"/><path class="cls-4" d="M341.32,103a32.5,32.5,0,0,0,3.24-4.08A20.1,20.1,0,0,0,347,93.37a21.11,21.11,0,0,0-2.48-17.08,21.12,21.12,0,0,0-8.18-7.41A19.8,19.8,0,0,0,330.68,67a18.91,18.91,0,0,0-6.26-.2,20.82,20.82,0,0,0-18.07,16.85,24.34,24.34,0,0,0-.37,3.15,21.39,21.39,0,0,0,.14,3.11,19.73,19.73,0,0,0,1.52,5.82A21,21,0,0,0,331.33,108a20.14,20.14,0,0,0,5.7-2.08,31.22,31.22,0,0,0,4.29-3s-.07.09-.24.25l-.75.67a10.76,10.76,0,0,1-1.29,1,16.44,16.44,0,0,1-1.89,1.21,20,20,0,0,1-5.75,2.21,21.42,21.42,0,0,1-17.24-3.59,21.4,21.4,0,0,1-7-8.86,20,20,0,0,1-1.58-6,24.24,24.24,0,0,1-.16-3.2,25.75,25.75,0,0,1,.38-3.24,21.35,21.35,0,0,1,18.58-17.32,19.2,19.2,0,0,1,6.43.22,19.77,19.77,0,0,1,5.84,2A21.49,21.49,0,0,1,345,76a21.45,21.45,0,0,1,2.39,17.45,20.26,20.26,0,0,1-2.6,5.57,14.68,14.68,0,0,1-1.35,1.81,9.89,9.89,0,0,1-1.1,1.21l-.72.71C341.42,102.92,341.33,103,341.32,103Z" transform="translate(-11.32 -10.37)"/><path class="cls-4" d="M340.35,85.91c-.05,0,.5-.52,1.17-1.6a8,8,0,0,0,1.14-5.11A7.87,7.87,0,0,0,338.38,73a7.68,7.68,0,0,0-4.47-.78,7.82,7.82,0,0,0-4.41,2,7.9,7.9,0,0,0-2.34,4.25,7.73,7.73,0,0,0,.48,4.51,7.8,7.8,0,0,0,5.85,4.7,8.11,8.11,0,0,0,5.18-.78c1.12-.6,1.63-1.11,1.68-1.06a2.26,2.26,0,0,1-.36.38,6,6,0,0,1-1.21.88,8,8,0,0,1-5.36,1,8.15,8.15,0,0,1-3.54-1.46,8.37,8.37,0,0,1-.79-12.86,8.46,8.46,0,0,1,4.75-2.19,8.28,8.28,0,0,1,9.24,7.5,8.05,8.05,0,0,1-1.36,5.28,6.25,6.25,0,0,1-1,1.14A2.12,2.12,0,0,1,340.35,85.91Z" transform="translate(-11.32 -10.37)"/><path class="cls-4" d="M277.86,141.91c-.11-.13,8.09-8,18.33-17.52s18.63-17.19,18.74-17.07-8.09,8-18.33,17.51S278,142,277.86,141.91Z" transform="translate(-11.32 -10.37)"/><path class="cls-5" d="M282.39,94.18l.33-.74.45.68a3.38,3.38,0,0,0,1.45,1.25l.75.33-.68.45a3.35,3.35,0,0,0-1.25,1.46l-.33.74-.45-.68a3.35,3.35,0,0,0-1.46-1.25l-.74-.33.68-.45A3.35,3.35,0,0,0,282.39,94.18Z" transform="translate(-11.32 -10.37)"/><path class="cls-5" d="M260.07,88.62l.19-.43.26.4a2.06,2.06,0,0,0,.85.72l.43.19-.4.26a2.06,2.06,0,0,0-.72.85l-.19.43-.26-.4a2.06,2.06,0,0,0-.85-.72l-.43-.19.4-.26A2.06,2.06,0,0,0,260.07,88.62Z" transform="translate(-11.32 -10.37)"/><path class="cls-5" d="M330.34,126.66l.2-.43.25.39a2,2,0,0,0,.85.72l.43.2-.39.26a1.89,1.89,0,0,0-.72.84l-.2.44-.26-.4a1.89,1.89,0,0,0-.84-.72l-.44-.19.4-.26A2,2,0,0,0,330.34,126.66Z" transform="translate(-11.32 -10.37)"/><path class="cls-5" d="M364.75,107.16l.33-.75.45.68a3.41,3.41,0,0,0,1.46,1.25l.74.33-.68.45a3.33,3.33,0,0,0-1.24,1.46l-.34.74-.44-.68a3.47,3.47,0,0,0-1.46-1.25l-.75-.33.69-.44A3.51,3.51,0,0,0,364.75,107.16Z" transform="translate(-11.32 -10.37)"/><path class="cls-5" d="M360.27,79.84l.56-1.25.75,1.14A5.72,5.72,0,0,0,364,81.82l1.25.56-1.15.75A5.79,5.79,0,0,0,362,85.58l-.55,1.25-.75-1.14a5.73,5.73,0,0,0-2.46-2.09L357,83l1.15-.75A5.79,5.79,0,0,0,360.27,79.84Z" transform="translate(-11.32 -10.37)"/><path class="cls-5" d="M275.45,71.41l.56-1.25.75,1.15a5.79,5.79,0,0,0,2.45,2.09l1.25.55-1.14.75a5.8,5.8,0,0,0-2.09,2.46l-.56,1.25-.75-1.15a5.79,5.79,0,0,0-2.45-2.09l-1.25-.56,1.14-.75A5.72,5.72,0,0,0,275.45,71.41Z" transform="translate(-11.32 -10.37)"/><path class="cls-4" d="M381.62,261.82l.95-.07a7.23,7.23,0,0,0,1.15-.14l.73-.12.83-.21a13.48,13.48,0,0,0,4.08-1.83,14,14,0,0,0,4.26-4.32,14.4,14.4,0,0,0,1.55-3.28,14.25,14.25,0,0,0,.65-3.94c0-.69,0-1.42,0-2.15,0-.36,0-.73-.05-1.1l-.18-1.11a14.64,14.64,0,0,0-1.59-4.41,14.24,14.24,0,0,0-7.86-6.48,16.06,16.06,0,0,0-5.62-.73h-6.06L245.07,232a14.19,14.19,0,0,0-8.6,2.94,14.68,14.68,0,0,0-3.12,3.32,14.33,14.33,0,0,0-1.87,4.12,15,15,0,0,0-.43,2.22c0,.75-.1,1.49-.08,2.26a15.32,15.32,0,0,0,.54,4.44,14.69,14.69,0,0,0,1.85,4,15,15,0,0,0,3,3.21,13.44,13.44,0,0,0,3.8,2.13,15,15,0,0,0,2.08.61,14,14,0,0,0,2.14.25c2.9.08,5.81,0,8.67,0h16.81l58.18.06,39.21.08,10.67,0,2.77,0c.62,0,.94,0,.94,0l-.94,0-2.77,0-10.67.05L328,262l-58.18.05H253c-2.87,0-5.75,0-8.7,0a16.79,16.79,0,0,1-2.22-.26,18.2,18.2,0,0,1-2.15-.63,14.13,14.13,0,0,1-3.93-2.21,14.35,14.35,0,0,1-5-7.49,15.73,15.73,0,0,1-.57-4.58c0-.76,0-1.54.09-2.32a15.29,15.29,0,0,1,.44-2.3,14.37,14.37,0,0,1,5.18-7.71,14.62,14.62,0,0,1,8.91-3l129.39.08h6.06a16.27,16.27,0,0,1,5.72.77,14.48,14.48,0,0,1,8,6.65,14.76,14.76,0,0,1,1.61,4.5l.17,1.13c0,.38,0,.76.05,1.13,0,.74,0,1.45,0,2.16a14.42,14.42,0,0,1-6.62,11.66,13.52,13.52,0,0,1-4.14,1.8c-.3.07-.57.15-.84.2l-.74.11a6.85,6.85,0,0,1-1.16.11Z" transform="translate(-11.32 -10.37)"/><rect class="cls-5" x="219.39" y="257.88" width="165.26" height="30.07" rx="14.35"/><path class="cls-4" d="M263.89,252.78a6.5,6.5,0,0,1-.05-.88c0-.62,0-1.43,0-2.44,0-2.13-.06-5.09-.11-8.67l.21.21-17.87.05.26-.26h0V247c0,2,0,3.93,0,5.76l-.24-.23,12.81.11,3.7.07,1,0,.36,0a9.6,9.6,0,0,1-1.26.06l-3.65.07L246,253h-.24v-.25c0-1.83,0-3.76,0-5.76,0-1,0-2,0-3.07v-3.14h0l.26-.26,17.87.05h.21v.21c-.05,3.63-.08,6.63-.11,8.8,0,1,0,1.78-.05,2.39A4.47,4.47,0,0,1,263.89,252.78Z" transform="translate(-11.32 -10.37)"/><path class="cls-4" d="M263.89,240.79a23,23,0,0,1-2.5,2.41c-1.58,1.43-3.8,3.39-6.26,5.52h-.37l0,0-.06,0-.12-.1-.22-.2-.46-.39-.88-.77-1.67-1.46-2.8-2.51a22.47,22.47,0,0,1-2.5-2.4,22.76,22.76,0,0,1,2.74,2.13l2.87,2.41,1.69,1.44.89.77.46.39.23.2.11.1.06.05,0,0v0h-.32c2.46-2.14,4.71-4.05,6.36-5.41A22.76,22.76,0,0,1,263.89,240.79Z" transform="translate(-11.32 -10.37)"/><path class="cls-4" d="M252.48,246.38a20.6,20.6,0,0,1-3,3.39,19.3,19.3,0,0,1-3.41,3,20.42,20.42,0,0,1,3-3.38A20,20,0,0,1,252.48,246.38Z" transform="translate(-11.32 -10.37)"/><path class="cls-4" d="M263.89,252.78a19.74,19.74,0,0,1-3.21-3.21,20.9,20.9,0,0,1-2.82-3.56,19.3,19.3,0,0,1,3.21,3.21A19.74,19.74,0,0,1,263.89,252.78Z" transform="translate(-11.32 -10.37)"/><path class="cls-4" d="M274.68,249.19v.39h-4.15v-6h4V244H271v2.37h3.21v.39H271v2.47Z" transform="translate(-11.32 -10.37)"/><path class="cls-4" d="M283.51,247v2.62h-.43V247c0-1-.52-1.55-1.4-1.55a1.57,1.57,0,0,0-1.64,1.74v2.39h-.43V247c0-1-.53-1.55-1.4-1.55a1.57,1.57,0,0,0-1.64,1.74v2.39h-.43V245.1h.41v1a1.78,1.78,0,0,1,1.72-1,1.59,1.59,0,0,1,1.64,1.08,1.89,1.89,0,0,1,1.81-1.08A1.69,1.69,0,0,1,283.51,247Z" transform="translate(-11.32 -10.37)"/><path class="cls-4" d="M288.51,246.74v2.84h-.41v-.8a1.74,1.74,0,0,1-1.62.84c-1,0-1.61-.52-1.61-1.28s.43-1.26,1.67-1.26h1.54v-.36a1.17,1.17,0,0,0-1.33-1.28,2.31,2.31,0,0,0-1.55.57l-.21-.31a2.7,2.7,0,0,1,1.79-.64A1.53,1.53,0,0,1,288.51,246.74Zm-.43,1.52v-.84h-1.53c-.93,0-1.25.38-1.25.9s.45.94,1.24.94A1.54,1.54,0,0,0,288.08,248.26Z" transform="translate(-11.32 -10.37)"/><path class="cls-4" d="M290.14,243.66a.35.35,0,1,1,.35.35A.35.35,0,0,1,290.14,243.66Zm.13,1.44h.43v4.48h-.43Z" transform="translate(-11.32 -10.37)"/><path class="cls-4" d="M292.52,243.21h.42v6.37h-.42Z" transform="translate(-11.32 -10.37)"/><path class="cls-3" d="M280.41,287.33l-1.62-2.27a4.65,4.65,0,0,1-.66.05h-1.94v2.22h-.49v-6.79h2.43c1.71,0,2.73.86,2.73,2.29a2.07,2.07,0,0,1-1.59,2.12l1.7,2.38Zm-2.28-2.66c1.45,0,2.23-.68,2.23-1.84s-.78-1.84-2.23-1.84h-1.94v3.68Z" transform="translate(-11.32 -10.37)"/><path class="cls-3" d="M286.79,284.91h-4.35a2.16,2.16,0,0,0,3.76,1.31l.28.32a2.42,2.42,0,0,1-1.91.83,2.48,2.48,0,0,1-2.6-2.57,2.42,2.42,0,0,1,2.42-2.57,2.39,2.39,0,0,1,2.41,2.55S286.79,284.87,286.79,284.91Zm-4.34-.37h3.88a1.94,1.94,0,0,0-3.88,0Z" transform="translate(-11.32 -10.37)"/><path class="cls-3" d="M287.56,286.72l.22-.39a3,3,0,0,0,1.82.61c1.07,0,1.5-.38,1.5-.95,0-1.47-3.36-.39-3.36-2.37,0-.77.64-1.39,1.92-1.39a3.13,3.13,0,0,1,1.74.49l-.23.39a2.59,2.59,0,0,0-1.52-.45c-1,0-1.42.4-1.42.95,0,1.52,3.35.44,3.35,2.37,0,.82-.71,1.39-2,1.39A3.22,3.22,0,0,1,287.56,286.72Z" transform="translate(-11.32 -10.37)"/><path class="cls-3" d="M297.21,284.91h-4.35a2.16,2.16,0,0,0,3.76,1.31l.28.32a2.44,2.44,0,0,1-1.91.83,2.48,2.48,0,0,1-2.6-2.57,2.42,2.42,0,1,1,4.83,0S297.21,284.87,297.21,284.91Zm-4.34-.37h3.88a1.94,1.94,0,0,0-3.88,0Z" transform="translate(-11.32 -10.37)"/><path class="cls-3" d="M301.23,287a1.54,1.54,0,0,1-1,.36,1.26,1.26,0,0,1-1.38-1.38v-3.31h-.93v-.41h.93v-1.11h.48v1.11h1.61v.41H299.3v3.26c0,.65.32,1,.94,1a1.19,1.19,0,0,0,.79-.28Z" transform="translate(-11.32 -10.37)"/><path class="cls-3" d="M310.39,282.83c0,1.43-1,2.28-2.73,2.28h-1.94v2.22h-.49v-6.79h2.43C309.36,280.54,310.39,281.4,310.39,282.83Zm-.5,0c0-1.17-.78-1.84-2.23-1.84h-1.94v3.67h1.94C309.11,284.66,309.89,284,309.89,282.83Z" transform="translate(-11.32 -10.37)"/><path class="cls-3" d="M315.51,284.12v3.21H315v-.9a1.94,1.94,0,0,1-1.82.94c-1.13,0-1.82-.59-1.82-1.45s.48-1.41,1.89-1.41H315v-.41a1.31,1.31,0,0,0-1.5-1.44,2.59,2.59,0,0,0-1.74.64l-.25-.35a3.08,3.08,0,0,1,2-.72A1.72,1.72,0,0,1,315.51,284.12Zm-.49,1.71v-.94H313.3c-1.05,0-1.42.43-1.42,1s.52,1.07,1.41,1.07A1.73,1.73,0,0,0,315,285.83Z" transform="translate(-11.32 -10.37)"/><path class="cls-3" d="M316.76,286.72l.22-.39a3,3,0,0,0,1.82.61c1.07,0,1.49-.38,1.49-.95,0-1.47-3.35-.39-3.35-2.37,0-.77.64-1.39,1.92-1.39a3.07,3.07,0,0,1,1.73.49l-.22.39a2.61,2.61,0,0,0-1.52-.45c-1,0-1.42.4-1.42.95,0,1.52,3.35.44,3.35,2.37,0,.82-.71,1.39-2,1.39A3.2,3.2,0,0,1,316.76,286.72Z" transform="translate(-11.32 -10.37)"/><path class="cls-3" d="M321.39,286.72l.22-.39a3,3,0,0,0,1.82.61c1.07,0,1.5-.38,1.5-.95,0-1.47-3.36-.39-3.36-2.37,0-.77.64-1.39,1.92-1.39a3.13,3.13,0,0,1,1.74.49l-.23.39a2.59,2.59,0,0,0-1.52-.45c-1,0-1.42.4-1.42.95,0,1.52,3.35.44,3.35,2.37,0,.82-.71,1.39-2,1.39A3.22,3.22,0,0,1,321.39,286.72Z" transform="translate(-11.32 -10.37)"/><path class="cls-3" d="M333.9,282.27,332,287.33h-.45l-1.71-4.39-1.72,4.39h-.44l-1.92-5.06h.47l1.68,4.51,1.73-4.51H330l1.72,4.5,1.7-4.5Z" transform="translate(-11.32 -10.37)"/><path class="cls-3" d="M334.33,284.8a2.53,2.53,0,1,1,2.53,2.57A2.46,2.46,0,0,1,334.33,284.8Zm4.56,0a2,2,0,1,0-2,2.13A2,2,0,0,0,338.89,284.8Z" transform="translate(-11.32 -10.37)"/><path class="cls-3" d="M343.28,282.23v.47h-.12c-1.12,0-1.79.75-1.79,2v2.64h-.48v-5.06h.46v1.1A1.93,1.93,0,0,1,343.28,282.23Z" transform="translate(-11.32 -10.37)"/><path class="cls-3" d="M349.06,280.14v7.19h-.47v-1.19a2.25,2.25,0,0,1-2.07,1.23,2.57,2.57,0,0,1,0-5.14,2.27,2.27,0,0,1,2.06,1.21v-3.3Zm-.48,4.66a2,2,0,1,0-2,2.13A2,2,0,0,0,348.58,284.8Z" transform="translate(-11.32 -10.37)"/><path class="cls-4" d="M413.58,26.59c0,.15-46.23.27-103.25.27s-103.25-.12-103.25-.27,46.22-.26,103.25-.26S413.58,26.45,413.58,26.59Z" transform="translate(-11.32 -10.37)"/><path class="cls-4" d="M218.78,18.39a2.51,2.51,0,1,1-2.51-2.51A2.51,2.51,0,0,1,218.78,18.39Z" transform="translate(-11.32 -10.37)"/><path class="cls-4" d="M226,18.39a2.51,2.51,0,1,1-2.51-2.51A2.51,2.51,0,0,1,226,18.39Z" transform="translate(-11.32 -10.37)"/><path class="cls-4" d="M233.22,18.39a2.51,2.51,0,1,1-2.51-2.51A2.51,2.51,0,0,1,233.22,18.39Z" transform="translate(-11.32 -10.37)"/><path class="cls-4" d="M414,324c0-2.14-.1-128.94-.24-313.39l.24.24-206.79,0h0l.26-.26c0,118.26,0,227.29-.05,313.39l-.21-.21L414,324l-206.81.21h-.21V324c0-86.1,0-195.13-.05-313.39v-.26h.28l206.79,0h.24v.24C414.05,195.08,414,321.88,414,324Z" transform="translate(-11.32 -10.37)"/></g><g id="Plant"><path class="cls-4" d="M410.17,408.48a2.1,2.1,0,0,0-.17-.41c-.13-.29-.32-.68-.55-1.17a30.6,30.6,0,0,1-1.61-4.69A41.35,41.35,0,0,1,408,384.1a97,97,0,0,1,3.35-12.16c1.43-4.32,3.08-8.9,4.42-13.85a53.47,53.47,0,0,0,2.19-15.92c-.21-5.63-1.87-11.26-3.71-16.85s-3.72-11.08-4.29-16.59A25.3,25.3,0,0,1,413,293.4c2.42-4.47,5.48-8.29,7.76-12.26a42.61,42.61,0,0,0,4.67-11.78,43.75,43.75,0,0,0,.29-18.25,34.32,34.32,0,0,0-1.9-6.45,2.79,2.79,0,0,0,.11.43q.15.45.39,1.23a48.29,48.29,0,0,1,1.18,4.83,44.43,44.43,0,0,1-.47,18.12,42.44,42.44,0,0,1-4.68,11.63c-2.28,3.91-5.35,7.72-7.83,12.25a25.79,25.79,0,0,0-3.13,15.63c.57,5.61,2.47,11.12,4.3,16.72s3.48,11.15,3.69,16.69A53.37,53.37,0,0,1,415.24,358c-1.33,4.93-3,9.51-4.36,13.84A95.2,95.2,0,0,0,407.57,384c-1.54,7.63-1.1,14.06.05,18.24a26.75,26.75,0,0,0,1.73,4.69l.6,1.15A3.88,3.88,0,0,0,410.17,408.48Z" transform="translate(-11.32 -10.37)"/><path class="cls-5" d="M417.65,285.05s4.64-14.84-3.69-23.52a.51.51,0,0,0-.88.25C412.64,264.23,412.08,271.69,417.65,285.05Z" transform="translate(-11.32 -10.37)"/><path class="cls-4" d="M414.87,266.47a13.27,13.27,0,0,0,.31,2.74c.3,1.88.66,4.1,1.06,6.54l1,6.55a13.93,13.93,0,0,0,.49,2.7,11.67,11.67,0,0,0-.08-2.75c-.16-1.7-.46-4-.88-6.59s-.86-4.87-1.23-6.53A12.26,12.26,0,0,0,414.87,266.47Z" transform="translate(-11.32 -10.37)"/><path class="cls-5" d="M412.2,320.05s-2.84-15.29-14.26-19.07a.51.51,0,0,0-.66.63C398,304,401,310.85,412.2,320.05Z" transform="translate(-11.32 -10.37)"/><path class="cls-4" d="M401.05,304.92a12.85,12.85,0,0,0,1.56,2.28l4,5.29,4,5.3a14.91,14.91,0,0,0,1.7,2.16,11.39,11.39,0,0,0-1.36-2.4c-.93-1.42-2.29-3.35-3.85-5.41s-3-3.9-4.14-5.2A12.66,12.66,0,0,0,401.05,304.92Z" transform="translate(-11.32 -10.37)"/><path class="cls-5" d="M415.28,358.4S417,343,407.18,336a.51.51,0,0,0-.82.41C406.39,338.91,407.27,346.35,415.28,358.4Z" transform="translate(-11.32 -10.37)"/><path class="cls-4" d="M409,340.69a12.6,12.6,0,0,0,.83,2.62l2.29,6.23,2.26,6.22a15.34,15.34,0,0,0,1,2.57,10.57,10.57,0,0,0-.61-2.69c-.47-1.64-1.21-3.87-2.11-6.3s-1.78-4.62-2.45-6.18A12.4,12.4,0,0,0,409,340.69Z" transform="translate(-11.32 -10.37)"/><path class="cls-5" d="M406.68,397s1.17-15.5-8.9-22.09a.52.52,0,0,0-.8.45C397.1,377.82,398.24,385.21,406.68,397Z" transform="translate(-11.32 -10.37)"/><path class="cls-4" d="M399.78,379.5a13,13,0,0,0,.92,2.59l2.51,6.14,2.49,6.14a15.09,15.09,0,0,0,1.09,2.53,11.78,11.78,0,0,0-.71-2.67c-.53-1.62-1.35-3.82-2.33-6.22s-1.95-4.55-2.68-6.08A11.93,11.93,0,0,0,399.78,379.5Z" transform="translate(-11.32 -10.37)"/><path class="cls-5" d="M424.32,272s13.78-7.19,14.05-19.22a.52.52,0,0,0-.81-.45C435.52,253.76,429.84,258.64,424.32,272Z" transform="translate(-11.32 -10.37)"/><path class="cls-4" d="M435.51,256.92a13.38,13.38,0,0,0-1.72,2.16l-3.89,5.37L426,269.81a13.76,13.76,0,0,0-1.57,2.26,12,12,0,0,0,1.89-2c1.09-1.31,2.53-3.17,4.05-5.27s2.83-4.05,3.75-5.48A12.69,12.69,0,0,0,435.51,256.92Z" transform="translate(-11.32 -10.37)"/><path class="cls-5" d="M409.52,303.88s14.19-6.34,15.19-18.33a.51.51,0,0,0-.77-.5C421.81,286.34,415.84,290.87,409.52,303.88Z" transform="translate(-11.32 -10.37)"/><path class="cls-4" d="M421.6,289.5a14.24,14.24,0,0,0-1.84,2l-4.21,5.13-4.21,5.11a15.17,15.17,0,0,0-1.71,2.16,11.42,11.42,0,0,0,2-1.89c1.16-1.23,2.71-3,4.36-5s3.07-3.87,4.07-5.24A12.27,12.27,0,0,0,421.6,289.5Z" transform="translate(-11.32 -10.37)"/><path class="cls-5" d="M417.68,339.43s9.75-12.12,5.18-23.25a.52.52,0,0,0-.92-.08C420.63,318.22,417.39,325,417.68,339.43Z" transform="translate(-11.32 -10.37)"/><path class="cls-4" d="M421.89,321.12a13,13,0,0,0-.71,2.66c-.4,1.87-.88,4.06-1.41,6.48l-1.42,6.47a15,15,0,0,0-.54,2.7,10.72,10.72,0,0,0,.94-2.6c.47-1.63,1.05-3.91,1.59-6.45s1-4.84,1.25-6.52A12,12,0,0,0,421.89,321.12Z" transform="translate(-11.32 -10.37)"/><path class="cls-5" d="M408,381.26s14.09-6.59,14.88-18.59a.51.51,0,0,0-.78-.48C420,363.51,414.14,368.14,408,381.26Z" transform="translate(-11.32 -10.37)"/><path class="cls-4" d="M419.87,366.67a14.55,14.55,0,0,0-1.81,2.08L414,374c-1.55,1.93-2.94,3.68-4.13,5.18a14.26,14.26,0,0,0-1.67,2.19,11.83,11.83,0,0,0,2-1.93c1.15-1.25,2.67-3.05,4.27-5.08s3-3.93,4-5.31A12,12,0,0,0,419.87,366.67Z" transform="translate(-11.32 -10.37)"/><path class="cls-4" d="M380,320.13s0,.12,0,.34,0,.6,0,1c0,.93.09,2.19.16,3.77.18,3.31.44,7.93.74,13.46h0v0c1,5.63,3.87,11.86,7.72,17.92,2.83,4.46,5.79,8.51,8.34,12.28a88.6,88.6,0,0,1,6.25,10.33,44.34,44.34,0,0,1,2.92,7.58c.25.93.43,1.66.54,2.15a4,4,0,0,0,.21.75,4.39,4.39,0,0,0-.1-.77c-.06-.51-.22-1.24-.43-2.18a40.47,40.47,0,0,0-2.77-7.71,83.69,83.69,0,0,0-6.18-10.45c-2.53-3.79-5.48-7.85-8.29-12.29-3.82-6-6.67-12.17-7.72-17.7v0c-.39-5.52-.72-10.14-.95-13.45-.13-1.57-.23-2.83-.3-3.76,0-.4-.07-.72-.1-1A1.66,1.66,0,0,0,380,320.13Z" transform="translate(-11.32 -10.37)"/><path class="cls-5" d="M388.36,355.49s-6-14.36,1.54-23.76a.51.51,0,0,1,.9.17C391.47,334.3,392.7,341.68,388.36,355.49Z" transform="translate(-11.32 -10.37)"/><path class="cls-4" d="M389.45,336.73a12.61,12.61,0,0,0-.47,2.72c-.21,1.69-.45,4-.63,6.61s-.28,4.94-.28,6.64a11.59,11.59,0,0,0,.17,2.76,15.84,15.84,0,0,0,.24-2.75c.13-1.9.28-4.14.45-6.61s.32-4.71.46-6.61A14,14,0,0,0,389.45,336.73Z" transform="translate(-11.32 -10.37)"/><g class="cls-6"><path d="M388.36,355.49s-6-14.36,1.54-23.76a.51.51,0,0,1,.9.17C391.47,334.3,392.7,341.68,388.36,355.49Z" transform="translate(-11.32 -10.37)"/></g><path class="cls-5" d="M406.84,390.09s-4.78-14.79,3.46-23.56a.51.51,0,0,1,.88.25C411.65,369.22,412.28,376.68,406.84,390.09Z" transform="translate(-11.32 -10.37)"/><path class="cls-4" d="M409.44,371.48a12.85,12.85,0,0,0-.69,2.67c-.35,1.67-.77,4-1.17,6.54s-.67,4.9-.81,6.6a11.12,11.12,0,0,0,0,2.75,15.88,15.88,0,0,0,.46-2.71c.28-1.89.61-4.1,1-6.55s.71-4.67,1-6.56A13.39,13.39,0,0,0,409.44,371.48Z" transform="translate(-11.32 -10.37)"/><g class="cls-6"><path d="M406.84,390.09s-4.78-14.79,3.46-23.56a.51.51,0,0,1,.88.25C411.65,369.22,412.28,376.68,406.84,390.09Z" transform="translate(-11.32 -10.37)"/></g><path class="cls-5" d="M380.77,338S368,329,369.32,317.07a.51.51,0,0,1,.85-.34C372,318.4,377,324,380.77,338Z" transform="translate(-11.32 -10.37)"/><g class="cls-6"><path d="M380.77,338S368,329,369.32,317.07a.51.51,0,0,1,.85-.34C372,318.4,377,324,380.77,338Z" transform="translate(-11.32 -10.37)"/></g><path class="cls-4" d="M371.62,321.53a12.35,12.35,0,0,0,1.06,2.55c.73,1.54,1.78,3.63,3,5.92s2.42,4.31,3.33,5.75a11.9,11.9,0,0,0,1.62,2.23,14.78,14.78,0,0,0-1.26-2.44l-3.18-5.82-3.15-5.83A13.74,13.74,0,0,0,371.62,321.53Z" transform="translate(-11.32 -10.37)"/><path class="cls-5" d="M401.7,375.42s-15.36-2.39-19.47-13.7a.52.52,0,0,1,.62-.68C385.24,361.73,392.18,364.53,401.7,375.42Z" transform="translate(-11.32 -10.37)"/><g class="cls-6"><path d="M401.7,375.42s-15.36-2.39-19.47-13.7a.52.52,0,0,1,.62-.68C385.24,361.73,392.18,364.53,401.7,375.42Z" transform="translate(-11.32 -10.37)"/></g><path class="cls-4" d="M386.26,364.72a12.48,12.48,0,0,0,2.07,1.82c1.33,1.06,3.2,2.48,5.32,4s4.07,2.81,5.52,3.7a11.39,11.39,0,0,0,2.44,1.29,15.43,15.43,0,0,0-2.21-1.64L394,370.05l-5.4-3.84A12.57,12.57,0,0,0,386.26,364.72Z" transform="translate(-11.32 -10.37)"/><polygon class="cls-9" points="408.56 393.32 404.15 422.22 386.56 422.19 380.63 393.32 408.56 393.32"/><path class="cls-4" d="M403.82,413a4.88,4.88,0,0,0,.81-2.42,2.62,2.62,0,0,0-1.19-2.48,2.84,2.84,0,0,0-2.95.24,4.32,4.32,0,0,0-1.68,2.66,11.07,11.07,0,0,0-.22,3.26,10.68,10.68,0,0,0,.71,3.34,7.35,7.35,0,0,0,2,2.91,5.71,5.71,0,0,0,3.39,1.41,6.15,6.15,0,0,0,3.52-1,10.48,10.48,0,0,0,2.63-2.37,5.82,5.82,0,0,0,1.33-3.18,3.66,3.66,0,0,0-1.25-3.06,2.86,2.86,0,0,0-3.12-.19,3.34,3.34,0,0,0-1.8,2.35,4.52,4.52,0,0,0,2.23,4.58,6.18,6.18,0,0,0,4.25.61,9.6,9.6,0,0,0,3-1.18,15,15,0,0,0,1.7-1.15,3.8,3.8,0,0,0,.54-.46,5.15,5.15,0,0,0-.6.38,19,19,0,0,1-1.73,1.06,9.54,9.54,0,0,1-3,1.09,6,6,0,0,1-4-.64,4.18,4.18,0,0,1-2-4.21,2.9,2.9,0,0,1,1.6-2.05,2.4,2.4,0,0,1,2.64.16,3.2,3.2,0,0,1,1.07,2.69,5.32,5.32,0,0,1-1.24,2.9,10,10,0,0,1-2.51,2.26,5.79,5.79,0,0,1-3.25,1,5.17,5.17,0,0,1-3.1-1.3,6.91,6.91,0,0,1-1.91-2.72,10.19,10.19,0,0,1-.69-3.19,10.83,10.83,0,0,1,.19-3.13,3.88,3.88,0,0,1,1.49-2.4,2.42,2.42,0,0,1,2.51-.25,2.24,2.24,0,0,1,1,2.12,4.55,4.55,0,0,1-.73,2.25,6.52,6.52,0,0,1-3.28,2.45,7.19,7.19,0,0,1-3.12.38,8,8,0,0,1-2.6-.78s0,.05.14.11.26.16.47.27a6.51,6.51,0,0,0,2,.58,7.28,7.28,0,0,0,3.24-.3,6.79,6.79,0,0,0,3.48-2.53" transform="translate(-11.32 -10.37)"/></g></svg>